<?xml version="1.0" standalone="no"?>
<!DOCTYPE svg PUBLIC "-//W3C//DTD SVG 20010904//EN"
 "http://www.w3.org/TR/2001/REC-SVG-20010904/DTD/svg10.dtd">
<svg version="1.0" xmlns="http://www.w3.org/2000/svg"
 width="512.000000pt" height="512.000000pt" viewBox="0 0 512.000000 512.000000"
 preserveAspectRatio="xMidYMid meet">
<metadata>
Created by potrace 1.14, written by Peter Selinger 2001-2017
</metadata>
<g transform="translate(0.000000,512.000000) scale(0.100000,-0.100000)"
fill="#000000" stroke="none">
<path d="M3620 4554 c-8 -2 -413 -5 -900 -8 -833 -4 -891 -6 -980 -24 -269
-57 -482 -173 -666 -364 -126 -132 -165 -202 -254 -449 -123 -341 -148 -410
-215 -599 -36 -102 -85 -239 -109 -305 -234 -642 -318 -891 -340 -997 -59
-287 44 -601 252 -774 84 -70 222 -138 332 -163 47 -11 247 -38 445 -61 198
-22 578 -65 845 -95 267 -30 519 -59 560 -65 41 -5 242 -28 445 -51 502 -55
666 -50 895 29 399 139 718 481 794 853 8 41 37 306 65 589 28 283 74 745 102
1025 58 586 67 731 50 831 -15 84 -72 208 -134 289 -134 177 -384 305 -656
335 -83 9 -480 12 -531 4z m8 -438 c36 -19 64 -59 91 -130 25 -68 28 -109 11
-151 -10 -26 -9 -31 6 -40 30 -17 73 -66 121 -140 81 -123 83 -130 77 -295 -3
-80 -12 -175 -20 -212 -8 -37 -14 -70 -14 -73 0 -3 78 -5 173 -3 129 2 180 0
204 -11 18 -7 30 -17 27 -22 -3 -5 -49 -9 -102 -9 -94 0 -260 -14 -305 -25
-15 -4 -29 -23 -44 -58 l-21 -52 127 -16 c142 -19 319 -54 356 -71 31 -14 33
-30 3 -23 -40 9 -259 26 -398 32 l-135 5 -90 -89 c-154 -151 -262 -202 -502
-238 -92 -14 -180 -28 -195 -31 -31 -6 -36 -25 -12 -44 30 -26 63 -97 80 -173
17 -75 17 -82 -1 -155 -10 -42 -35 -129 -56 -194 -22 -64 -39 -121 -39 -127 0
-6 20 -11 49 -11 174 0 355 -43 475 -114 89 -52 127 -170 79 -245 -24 -40
-152 -137 -213 -163 -125 -55 -362 -119 -500 -137 -139 -18 -610 -32 -703 -21
-240 29 -545 91 -663 136 -97 36 -122 51 -189 107 -113 97 -143 143 -144 225
-1 61 36 119 119 187 79 65 137 84 315 106 127 15 185 4 185 -36 0 -27 7 -25
-140 -54 -52 -11 -106 -24 -120 -30 -23 -9 -22 -10 15 -10 22 -1 79 4 125 10
47 6 94 12 105 14 17 1 23 17 42 111 12 60 22 121 22 135 1 30 -18 39 -86 39
-64 0 -182 28 -241 56 -59 29 -94 70 -117 135 -9 24 -41 94 -72 156 -43 85
-71 127 -117 173 -58 59 -60 62 -42 76 24 17 147 19 179 3 41 -21 69 -54 143
-165 84 -128 108 -145 231 -163 68 -10 85 -9 198 14 12 3 21 13 22 25 3 31 38
83 89 130 25 23 44 43 42 45 -2 2 -58 13 -125 24 -122 21 -232 57 -288 95
-107 72 -225 238 -225 316 0 28 -47 26 -200 -9 -156 -36 -221 -59 -300 -105
-34 -20 -64 -35 -67 -33 -8 9 70 68 125 96 85 43 226 88 317 101 44 7 85 14
92 16 12 3 13 67 2 79 -3 3 -68 6 -143 6 -117 0 -151 -4 -232 -26 -53 -14 -99
-24 -102 -20 -12 12 20 29 100 52 66 20 114 26 236 30 l152 6 0 29 c0 118 166
402 328 561 62 62 69 72 70 110 2 46 52 152 105 225 l32 42 65 -5 c169 -15
203 -24 303 -76 34 -17 44 -18 75 -8 111 37 567 46 694 14 67 -17 68 -17 104
5 21 12 99 37 173 55 192 48 237 53 279 31z"/>
<path d="M3610 4085 c7 -8 17 -15 22 -15 6 0 5 7 -2 15 -7 8 -17 15 -22 15 -6
0 -5 -7 2 -15z"/>
<path d="M2609 3993 c-13 -15 -12 -15 9 -4 23 12 28 21 13 21 -5 0 -15 -7 -22
-17z"/>
<path d="M2910 4006 c0 -2 13 -6 29 -8 17 -2 28 -1 25 4 -5 8 -54 12 -54 4z"/>
<path d="M3229 3993 c-13 -15 -12 -15 9 -4 23 12 28 21 13 21 -5 0 -15 -7 -22
-17z"/>
<path d="M3090 3970 c-8 -5 -10 -10 -5 -10 6 0 17 5 25 10 8 5 11 10 5 10 -5
0 -17 -5 -25 -10z"/>
<path d="M2154 3848 l-29 -33 33 29 c30 28 37 36 29 36 -2 0 -16 -15 -33 -32z"/>
<path d="M2609 3653 l-34 -38 38 34 c34 33 42 41 34 41 -2 0 -19 -17 -38 -37z"/>
<path d="M1859 3644 c-13 -14 -17 -23 -9 -19 13 5 46 45 37 45 -2 0 -14 -11
-28 -26z"/>
<path d="M3125 3660 c-3 -5 -2 -10 4 -10 5 0 13 5 16 10 3 6 2 10 -4 10 -5 0
-13 -4 -16 -10z"/>
<path d="M2890 3570 c-25 -21 -40 -39 -35 -39 6 0 30 18 54 39 24 22 40 40 35
40 -5 0 -29 -18 -54 -40z"/>
<path d="M2538 3533 c7 -3 16 -2 19 1 4 3 -2 6 -13 5 -11 0 -14 -3 -6 -6z"/>
<path d="M3135 3520 c3 -5 12 -10 20 -10 8 0 17 5 20 10 4 6 -5 10 -20 10 -15
0 -24 -4 -20 -10z"/>
<path d="M2210 3481 c-105 -5 -131 -10 -164 -29 -21 -12 -62 -31 -92 -42 -30
-10 -72 -32 -94 -48 -65 -47 -152 -154 -195 -237 -37 -72 -40 -85 -40 -156 0
-75 2 -80 41 -136 23 -32 59 -70 80 -85 38 -27 54 -33 159 -63 28 -8 79 -23
115 -34 36 -11 85 -23 110 -26 25 -4 54 -12 65 -18 11 -6 90 -16 175 -23 85
-7 196 -18 245 -23 50 -6 115 -11 145 -11 55 0 70 3 250 55 52 15 125 36 162
46 75 22 224 114 286 178 55 56 120 190 134 273 12 75 19 55 -69 189 -34 51
-84 93 -148 124 -79 37 -358 63 -735 68 -168 2 -361 1 -430 -2z m30 -156 c66
-63 78 -201 27 -301 -35 -69 -120 -160 -176 -189 -72 -36 -128 -40 -176 -13
-72 42 -92 127 -60 253 33 123 98 215 188 260 72 36 153 32 197 -10z m1086 6
c50 -23 80 -59 98 -121 17 -58 9 -145 -21 -211 -24 -54 -104 -147 -147 -171
-73 -40 -187 -9 -244 67 -29 38 -34 53 -35 102 -2 100 82 293 146 338 31 22
151 20 203 -4z m-695 -449 c7 -18 4 -28 -16 -48 -29 -29 -64 -31 -95 -6 -27
22 -22 35 24 63 40 25 76 21 87 -9z m-193 -143 c15 -23 70 -49 105 -49 13 0
41 12 62 26 45 30 68 25 63 -13 -5 -43 -56 -65 -140 -61 -55 3 -72 8 -93 28
-35 32 -46 55 -39 74 8 22 27 20 42 -5z"/>
<path d="M2050 3282 c-97 -49 -150 -148 -150 -281 0 -119 45 -168 130 -142
101 30 189 163 198 297 5 85 -6 117 -50 140 -39 20 -66 17 -128 -14z m123 -54
c30 -40 28 -138 -2 -198 -31 -60 -67 -97 -107 -110 -44 -15 -65 -7 -108 40
-44 49 -47 91 -12 165 55 116 178 172 229 103z"/>
<path d="M3194 3299 c-44 -10 -96 -54 -121 -103 -22 -42 -53 -155 -53 -192 0
-38 27 -74 85 -114 73 -50 129 -37 196 45 43 54 66 109 74 178 6 50 4 64 -20
112 -36 74 -77 93 -161 74z m104 -52 c54 -26 66 -103 32 -203 -33 -94 -77
-134 -148 -134 -77 0 -129 73 -117 165 11 82 38 131 90 164 49 31 91 33 143 8z"/>
<path d="M3506 3375 c4 -8 10 -15 15 -15 5 0 9 7 9 15 0 8 -7 15 -15 15 -9 0
-12 -6 -9 -15z"/>
<path d="M1510 3325 c-7 -9 -11 -18 -8 -20 3 -3 11 1 18 10 7 9 11 18 8 20 -3
3 -11 -1 -18 -10z"/>
<path d="M3589 3273 c-13 -16 -12 -17 4 -4 9 7 17 15 17 17 0 8 -8 3 -21 -13z"/>
<path d="M3560 2705 c-7 -9 -10 -18 -7 -22 8 -7 37 15 37 28 0 14 -16 11 -30
-6z"/>
<path d="M1660 2241 c0 -19 12 -41 20 -36 10 6 1 45 -11 45 -5 0 -9 -4 -9 -9z"/>
<path d="M1918 2243 c7 -3 16 -2 19 1 4 3 -2 6 -13 5 -11 0 -14 -3 -6 -6z"/>
<path d="M2231 2193 c-1 -6 -4 -20 -7 -30 -5 -17 -5 -17 6 0 6 10 9 23 6 30
-3 9 -5 9 -5 0z"/>
<path d="M2461 2178 c-16 -43 -30 -100 -41 -173 -36 -238 -108 -501 -159 -582
-22 -36 -38 -48 -106 -77 -125 -53 -162 -61 -199 -41 -29 16 -39 16 -126 2
-52 -9 -139 -21 -192 -28 -54 -6 -98 -15 -98 -20 0 -15 39 -30 113 -44 40 -8
116 -24 171 -35 l99 -21 14 21 c8 12 25 25 36 29 14 5 22 17 22 32 0 19 10 28
55 46 57 22 215 53 274 53 33 0 66 -23 48 -34 -4 -2 -35 -15 -68 -27 -57 -21
-102 -48 -59 -36 11 4 52 13 90 22 104 25 98 20 80 54 -8 17 -21 57 -29 91
-13 55 -13 68 6 153 24 113 39 214 42 287 2 30 8 91 14 135 26 178 30 210 26
214 -2 2 -8 -8 -13 -21z"/>
<path d="M2722 2108 c-6 -24 -16 -77 -22 -118 -6 -41 -19 -115 -30 -165 -23
-109 -60 -340 -60 -376 0 -14 7 -34 15 -45 8 -10 15 -27 15 -36 0 -13 8 -18
29 -18 17 0 32 4 35 9 3 5 42 21 86 37 44 15 80 31 80 34 0 4 -14 10 -30 14
-39 7 -116 60 -131 88 -18 33 -14 62 25 198 39 136 45 218 25 339 -14 84 -23
93 -37 39z"/>
<path d="M2115 2107 c-8 -13 -24 -64 -34 -113 -11 -49 -26 -118 -34 -154 -9
-36 -22 -102 -30 -147 -27 -148 -95 -206 -277 -236 -106 -17 -120 -14 -120 29
0 19 -2 34 -5 34 -6 0 -117 -50 -175 -78 -22 -11 -18 -12 30 -7 30 3 71 8 92
11 31 5 38 3 48 -17 11 -19 10 -24 -6 -36 -23 -16 -19 -16 118 3 71 10 139 14
184 10 l71 -7 41 45 c23 25 42 47 42 49 0 2 16 73 35 158 30 129 37 180 42
317 3 89 3 162 0 162 -4 0 -13 -10 -22 -23z"/>
<path d="M2830 1915 c7 -8 16 -12 21 -9 13 8 1 24 -18 24 -13 0 -13 -3 -3 -15z"/>
<path d="M1430 1756 c-67 -25 -90 -36 -90 -40 0 -5 35 5 110 33 30 11 46 20
35 20 -11 0 -36 -6 -55 -13z"/>
<path d="M2942 1689 c-15 -62 -15 -85 -2 -109 10 -18 11 -18 63 0 87 31 223
90 208 90 -8 0 -41 -5 -72 -12 -46 -9 -61 -9 -73 1 -24 20 -20 29 17 40 l32 9
-45 1 c-25 1 -56 8 -70 16 -39 22 -46 18 -58 -36z"/>
<path d="M1705 1683 c-104 -25 -399 -142 -325 -129 14 3 79 8 145 11 150 8
202 18 226 41 19 19 37 95 22 93 -4 -1 -35 -8 -68 -16z"/>
<path d="M1525 1678 c-38 -5 -107 -15 -153 -22 -46 -7 -85 -9 -88 -4 -9 14
-71 -41 -89 -78 -9 -20 -15 -37 -13 -39 9 -9 392 127 413 146 5 5 7 8 5 7 -3
0 -36 -5 -75 -10z"/>
<path d="M3205 1631 c-49 -15 -99 -33 -110 -39 -17 -11 -14 -12 25 -7 43 6
139 23 240 43 l45 9 -28 11 c-41 17 -71 14 -172 -17z"/>
<path d="M3430 1605 c0 -19 -36 -36 -130 -65 -87 -26 -271 -97 -284 -111 -6
-5 -18 -9 -27 -9 -23 0 -152 -40 -147 -46 3 -2 27 2 54 10 27 8 81 19 119 26
99 16 237 48 328 76 91 28 157 32 157 9 0 -24 -268 -147 -433 -200 -82 -25
-147 -48 -144 -51 4 -4 311 79 448 122 85 27 119 30 119 12 1 -23 49 41 59 78
14 51 -6 94 -62 133 -52 35 -57 37 -57 16z"/>
<path d="M3195 1564 c-110 -13 -206 -28 -209 -33 -2 -3 0 -17 5 -30 8 -20 14
-23 44 -18 20 3 59 17 88 30 29 14 69 30 90 37 36 11 50 22 25 19 -7 -1 -26
-4 -43 -5z"/>
<path d="M1380 1529 c-30 -5 -85 -17 -122 -26 l-67 -18 28 -33 27 -34 49 22
c28 12 82 37 120 56 39 18 77 35 85 38 25 8 -62 4 -120 -5z"/>
<path d="M2830 1510 c20 -13 33 -13 25 0 -3 6 -14 10 -23 10 -15 0 -15 -2 -2
-10z"/>
<path d="M3165 1409 c-66 -16 -149 -36 -185 -45 -36 -9 -119 -28 -184 -43 -66
-15 -121 -32 -123 -38 -5 -14 170 23 371 78 83 23 175 48 204 56 28 8 52 16
52 19 0 6 -4 5 -135 -27z"/>
<path d="M1361 1361 c-28 -8 -20 -17 48 -51 34 -17 48 -19 70 -11 14 5 46 13
71 17 25 4 39 9 32 12 -7 2 -41 -1 -75 -8 -76 -14 -122 -2 -112 30 7 21 4 22
-34 11z"/>
<path d="M3420 1333 c-68 -30 -256 -96 -377 -131 -68 -20 -121 -37 -119 -40 8
-7 232 41 292 64 91 34 230 100 238 113 8 13 10 13 -34 -6z"/>
<path d="M2935 1309 c-84 -26 -280 -74 -440 -109 -99 -21 -207 -47 -240 -58
l-60 -19 75 -7 c41 -4 155 -2 255 4 99 7 207 13 240 14 75 3 105 13 105 33 0
15 -31 15 -105 -3 -11 -2 -27 0 -35 6 -13 8 -13 11 0 24 21 20 145 81 208 101
50 16 66 26 40 24 -7 0 -26 -5 -43 -10z"/>
<path d="M2385 1234 c-235 -48 -362 -76 -375 -81 -9 -4 4 -9 29 -13 34 -5 68
0 140 20 53 15 130 35 171 44 73 17 150 45 120 44 -8 0 -46 -7 -85 -14z"/>
</g>
</svg>
