<?xml version="1.0" standalone="no"?>
<!DOCTYPE svg PUBLIC "-//W3C//DTD SVG 20010904//EN"
 "http://www.w3.org/TR/2001/REC-SVG-20010904/DTD/svg10.dtd">
<svg version="1.0" xmlns="http://www.w3.org/2000/svg"
 width="495.000000pt" height="495.000000pt" viewBox="0 0 495.000000 495.000000"
 preserveAspectRatio="xMidYMid meet">

<g transform="translate(0.000000,495.000000) scale(0.100000,-0.100000)"
fill="#fff" stroke="none">
<path d="M0 2475 l0 -2475 2475 0 2475 0 0 2475 0 2475 -2475 0 -2475 0 0
-2475z m3430 1753 c47 -32 101 -117 144 -224 37 -95 41 -123 27 -187 -9 -37
-8 -39 28 -62 42 -26 84 -72 108 -119 9 -17 33 -53 54 -81 20 -27 53 -80 73
-116 33 -60 37 -77 46 -185 5 -65 14 -150 19 -189 6 -38 7 -116 4 -173 l-6
-103 49 5 c27 3 95 11 150 17 117 14 182 9 220 -16 39 -25 22 -30 -141 -44
-125 -10 -271 -33 -282 -45 -5 -5 -32 -116 -33 -135 0 -7 6 -11 13 -8 50 19
512 -60 531 -91 5 -9 -140 -7 -289 4 -107 8 -259 7 -287 -2 -9 -2 -38 -40 -64
-82 -53 -87 -111 -151 -199 -221 -84 -67 -142 -94 -275 -125 -208 -49 -250
-60 -262 -67 -7 -5 8 -30 45 -75 39 -47 67 -95 92 -156 31 -78 35 -98 35 -179
0 -77 -19 -282 -35 -371 l-4 -26 157 0 c150 1 162 -1 262 -32 132 -41 169 -59
210 -106 58 -66 75 -142 47 -207 -19 -44 -146 -165 -214 -203 -96 -53 -285
-131 -386 -159 -103 -28 -261 -54 -512 -86 -140 -18 -199 -20 -335 -15 -379
14 -679 59 -799 121 -25 12 -87 50 -138 84 -110 72 -163 140 -171 220 -6 68
12 115 76 195 66 82 108 104 293 148 134 32 203 33 234 2 36 -37 16 -53 -109
-90 -81 -23 -201 -72 -180 -73 19 -1 267 50 283 58 9 5 22 6 29 4 9 -4 11 8 7
49 -2 29 -7 92 -10 140 -3 48 -9 98 -15 112 -9 25 -12 26 -107 26 -198 1 -348
49 -415 133 -18 23 -47 62 -62 87 -16 25 -73 101 -127 170 -88 114 -156 179
-256 249 -18 12 -33 28 -33 35 0 21 50 37 127 43 117 9 146 -10 353 -236 124
-137 159 -154 315 -155 80 -1 126 4 169 17 38 12 55 21 47 26 -24 15 21 136
75 200 15 19 23 36 18 41 -5 4 -72 16 -149 25 -142 17 -264 49 -345 90 -125
64 -318 253 -375 368 l-37 74 -51 -9 c-69 -13 -287 -83 -362 -118 -33 -15 -95
-55 -139 -89 -43 -33 -81 -61 -83 -61 -6 0 5 18 44 72 70 96 311 215 517 253
20 4 36 9 36 12 0 2 -7 26 -16 54 l-16 49 -142 0 c-168 0 -227 -9 -346 -56
-49 -19 -92 -34 -95 -34 -3 0 -5 8 -5 19 0 18 59 50 161 87 58 20 234 44 333
44 l78 0 -6 26 c-15 58 -7 273 13 357 53 218 161 475 233 554 19 20 19 25 7
55 -28 68 -6 250 48 393 22 58 11 56 198 37 130 -13 204 -34 260 -72 72 -49
106 -56 170 -36 171 54 801 73 830 25 3 -4 26 -11 51 -15 42 -6 48 -4 77 24
23 21 72 44 167 77 226 80 295 90 350 53z"/>
<path d="M3400 4203 c0 -5 11 -20 25 -33 14 -13 25 -19 25 -13 0 5 -11 20 -25
33 -14 13 -25 19 -25 13z"/>
<path d="M1546 4069 c-15 -29 -21 -47 -13 -41 19 16 60 92 49 92 -5 0 -21 -23
-36 -51z"/>
<path d="M3015 4072 c-5 -4 -19 -18 -30 -32 -16 -21 -14 -20 13 4 29 27 37 36
30 36 -2 0 -7 -4 -13 -8z"/>
<path d="M2600 4058 c0 -5 11 -8 24 -8 13 0 31 -3 40 -6 9 -3 16 -2 16 4 0 5
-18 12 -40 14 -22 2 -40 0 -40 -4z"/>
<path d="M2230 4020 c-11 -22 -19 -40 -17 -40 3 0 16 18 31 40 14 22 22 40 16
40 -5 0 -19 -18 -30 -40z"/>
<path d="M1785 4020 c-3 -5 -1 -10 4 -10 6 0 11 5 11 10 0 6 -2 10 -4 10 -3 0
-8 -4 -11 -10z"/>
<path d="M2829 4011 c-19 -16 -20 -20 -8 -21 17 0 45 27 37 35 -3 3 -16 -3
-29 -14z"/>
<path d="M1736 3835 c-48 -74 -51 -80 -35 -68 15 12 64 93 56 93 -3 0 -12 -11
-21 -25z"/>
<path d="M1317 3823 c-4 -3 -7 -11 -7 -17 0 -6 5 -5 12 2 6 6 9 14 7 17 -3 3
-9 2 -12 -2z"/>
<path d="M2343 3553 c-52 -79 -59 -93 -28 -58 25 30 77 115 70 115 -3 0 -21
-26 -42 -57z"/>
<path d="M2945 3559 c-11 -17 1 -21 15 -4 8 9 8 15 2 15 -6 0 -14 -5 -17 -11z"/>
<path d="M1416 3494 c-23 -50 -15 -53 13 -4 12 22 18 40 13 40 -4 0 -16 -16
-26 -36z"/>
<path d="M2709 3447 c-58 -67 -64 -77 -45 -77 14 0 101 118 93 126 -2 2 -24
-20 -48 -49z"/>
<path d="M2285 3370 c-18 -8 -17 -9 8 -9 15 -1 27 4 27 9 0 12 -8 12 -35 0z"/>
<path d="M2990 3371 c0 -12 29 -23 41 -15 18 10 9 24 -16 24 -14 0 -25 -4 -25
-9z"/>
<path d="M2075 3288 c-244 -11 -320 -24 -362 -61 -19 -17 -58 -41 -86 -54 -76
-35 -132 -95 -183 -195 -84 -166 -108 -305 -75 -431 23 -87 56 -139 143 -224
56 -55 166 -113 214 -113 14 0 40 -6 57 -14 36 -15 213 -54 284 -63 27 -3 64
-12 83 -20 26 -11 113 -18 349 -26 339 -11 375 -8 473 36 74 34 139 61 236 98
76 28 93 40 183 126 76 74 106 110 129 159 46 95 70 203 70 310 l0 94 -62 91
c-75 110 -157 187 -240 228 -65 31 -63 31 -373 61 -109 11 -585 9 -840 -2z
m1148 -162 c75 -27 106 -57 149 -144 41 -82 42 -84 42 -196 l1 -114 -50 -98
c-64 -127 -92 -148 -185 -141 -71 4 -119 25 -158 65 -88 95 -108 164 -93 315
15 146 65 288 110 312 33 18 135 18 184 1z m-1292 -30 c75 -13 169 -155 190
-287 19 -118 -8 -229 -83 -335 -47 -68 -58 -78 -113 -104 -77 -37 -165 -19
-227 47 -35 37 -52 79 -73 183 -48 237 47 470 204 501 20 3 43 5 51 4 8 -2 31
-6 51 -9z m632 -593 c27 -31 26 -64 -3 -93 -26 -26 -60 -25 -94 1 -35 27 -33
52 7 83 38 30 68 33 90 9z m-157 -220 c36 -29 56 -37 97 -41 50 -4 54 -2 90
34 l38 39 20 -24 c35 -43 19 -75 -54 -106 -102 -42 -247 20 -247 106 0 16 3
29 6 29 3 0 26 -17 50 -37z"/>
<path d="M3123 3066 c-54 -14 -86 -45 -114 -109 -19 -43 -24 -74 -27 -174 -4
-117 -3 -125 21 -166 27 -45 107 -108 164 -127 43 -16 82 6 121 67 47 75 65
150 60 257 -4 95 -21 142 -75 213 -21 27 -81 57 -103 52 -3 -1 -24 -7 -47 -13z
m118 -69 c19 -12 44 -42 57 -67 21 -41 23 -55 19 -150 -6 -162 -49 -230 -146
-230 -42 0 -88 35 -120 92 -29 50 -31 59 -31 158 0 114 3 123 63 188 26 27 38
32 77 32 32 0 58 -7 81 -23z"/>
<path d="M1794 3002 c-44 -29 -67 -52 -89 -93 -28 -51 -30 -60 -29 -164 2
-199 67 -335 160 -335 69 0 126 48 171 145 26 56 28 69 28 185 0 80 -5 139
-14 164 -19 54 -76 114 -119 126 -49 13 -41 15 -108 -28z m135 -60 c95 -94
102 -330 13 -415 -43 -41 -79 -43 -133 -9 -66 42 -98 89 -109 157 -19 115 33
233 125 283 35 20 75 14 104 -16z"/>
<path d="M3440 3197 c0 -8 7 -20 15 -27 12 -10 15 -10 15 3 0 8 -7 20 -15 27
-12 10 -15 10 -15 -3z"/>
<path d="M1112 3048 c-12 -16 -27 -68 -18 -68 7 0 38 72 33 77 -2 2 -9 -2 -15
-9z"/>
<path d="M3557 3053 c-4 -3 -7 -11 -7 -17 0 -6 5 -5 12 2 6 6 9 14 7 17 -3 3
-9 2 -12 -2z"/>
<path d="M3630 2320 c-8 -15 -9 -25 -2 -32 7 -7 14 -3 22 12 8 15 9 25 2 32
-7 7 -14 3 -22 -12z"/>
<path d="M1948 1638 c9 -9 15 -9 24 0 9 9 7 12 -12 12 -19 0 -21 -3 -12 -12z"/>
<path d="M1660 1617 c0 -7 7 -22 15 -33 12 -16 14 -17 15 -2 0 23 -11 48 -21
48 -5 0 -9 -6 -9 -13z"/>
<path d="M2566 1599 c-4 -20 -3 -160 4 -312 15 -379 -5 -568 -65 -615 -13 -11
-67 -41 -119 -67 l-95 -48 -40 17 c-36 17 -42 17 -88 2 -26 -8 -106 -29 -178
-46 -160 -38 -165 -39 -165 -49 0 -14 80 -29 250 -45 198 -20 190 -20 190 -2
0 8 11 24 25 35 19 15 24 25 20 43 -5 21 1 28 45 52 58 31 239 86 286 86 30 0
60 -20 49 -32 -3 -3 -35 -20 -70 -38 -36 -18 -63 -35 -61 -37 4 -4 176 54 184
61 2 2 -11 25 -28 52 -56 89 -70 142 -71 277 -1 117 -4 158 -29 382 -37 328
-37 322 -44 284z"/>
<path d="M2313 1583 c-1 -19 1 -22 8 -12 11 17 12 39 2 39 -5 0 -9 -12 -10
-27z"/>
<path d="M2866 1568 c-3 -13 -4 -70 -1 -128 3 -58 7 -166 10 -240 13 -396 16
-418 47 -457 15 -20 28 -40 28 -44 0 -16 37 -10 61 10 13 10 56 34 94 54 l70
35 -45 12 c-55 14 -117 49 -150 85 -24 26 -25 30 -20 138 10 256 4 313 -47
467 -29 87 -38 100 -47 68z"/>
<path d="M2204 1484 c-4 -20 -3 -133 1 -252 11 -321 11 -331 -13 -383 -19 -40
-32 -52 -89 -82 -72 -37 -187 -71 -225 -65 -16 2 -26 13 -33 36 -5 17 -14 32
-20 32 -6 0 -35 -16 -65 -36 -30 -19 -72 -44 -93 -55 -22 -11 -37 -22 -35 -24
2 -2 46 6 97 17 100 23 123 20 129 -21 3 -16 -2 -21 -20 -22 -16 -1 -18 -3 -6
-6 10 -2 74 9 143 26 80 20 152 31 197 31 78 0 81 2 120 75 20 38 21 49 15
231 -5 165 -11 212 -42 358 -19 92 -35 170 -35 172 0 2 -4 4 -10 4 -5 0 -12
-16 -16 -36z"/>
<path d="M3015 1340 c-3 -6 1 -13 10 -16 19 -8 30 0 20 15 -8 14 -22 14 -30 1z"/>
<path d="M3186 1111 c-6 -42 -1 -89 16 -134 13 -34 26 -31 118 24 36 22 86 49
113 61 66 31 59 41 -12 17 -69 -23 -114 -22 -119 3 -2 12 7 20 30 27 31 9 30
9 -22 10 -30 1 -66 8 -80 16 -35 20 -37 19 -44 -24z"/>
<path d="M3453 1042 c-56 -26 -103 -50 -103 -54 0 -7 70 9 194 46 48 14 94 26
102 26 30 0 12 18 -23 24 -57 9 -60 8 -170 -42z"/>
<path d="M1544 1019 c-33 -17 -63 -35 -69 -41 -16 -16 36 2 67 24 15 10 42 25
60 33 18 8 26 14 17 15 -10 0 -43 -14 -75 -31z"/>
<path d="M3700 1036 c0 -17 -45 -46 -125 -79 -64 -27 -256 -133 -265 -146 -3
-4 -17 -11 -31 -14 -35 -9 -141 -58 -136 -63 2 -3 24 4 48 14 24 10 98 35 164
55 66 20 154 50 195 68 41 17 106 43 144 56 59 21 71 23 83 10 12 -12 10 -18
-19 -41 -57 -47 -225 -153 -290 -184 -35 -17 -98 -46 -140 -65 -78 -36 -112
-62 -40 -31 20 9 114 48 207 86 94 38 194 80 223 94 44 21 56 23 69 13 21 -18
40 9 49 69 9 61 -15 107 -76 143 -53 32 -60 34 -60 15z"/>
<path d="M1860 960 c-41 -16 -97 -40 -125 -55 -64 -34 -205 -117 -205 -120 0
-2 17 1 38 5 20 5 89 16 152 26 126 18 218 44 231 65 14 22 11 109 -3 108 -7
-1 -47 -14 -88 -29z"/>
<path d="M3455 972 c-157 -39 -189 -49 -192 -58 -1 -5 6 -20 16 -33 l19 -25
48 26 c95 49 184 99 184 104 0 5 -1 5 -75 -14z"/>
<path d="M1715 950 c-16 -5 -70 -16 -120 -26 -49 -9 -105 -23 -124 -30 -24
-10 -38 -11 -46 -4 -25 21 -105 -114 -81 -137 4 -4 37 8 74 26 37 19 91 42
120 52 29 10 67 28 85 41 17 12 59 37 92 55 59 32 59 39 0 23z"/>
<path d="M3100 890 c0 -9 39 -25 46 -18 2 3 -7 10 -21 16 -14 6 -25 7 -25 2z"/>
<path d="M3520 823 c-75 -29 -234 -87 -399 -144 -113 -38 -154 -59 -117 -59
35 0 573 203 594 225 10 10 -14 3 -78 -22z"/>
<path d="M1743 793 c9 -2 23 -2 30 0 6 3 -1 5 -18 5 -16 0 -22 -2 -12 -5z"/>
<path d="M1605 770 c-44 -10 -104 -28 -133 -39 -29 -12 -64 -21 -77 -21 -34 0
-31 -10 16 -49 34 -28 45 -32 58 -23 9 7 42 25 73 42 31 16 72 43 90 58 18 16
47 34 63 40 48 17 1 13 -90 -8z"/>
<path d="M3609 686 c-86 -46 -204 -102 -262 -126 -59 -24 -105 -45 -103 -47 7
-7 206 60 275 92 88 42 211 117 236 145 10 11 16 20 14 19 -2 -1 -74 -38 -160
-83z"/>
<path d="M3260 678 c-78 -35 -219 -88 -383 -143 -176 -60 -327 -117 -327 -125
0 -17 369 24 492 56 32 8 73 14 92 14 35 0 86 18 86 29 0 3 -4 12 -8 19 -7 10
-17 9 -51 -3 -55 -19 -91 -19 -91 0 0 20 91 87 178 129 39 20 72 38 72 41 0 8
-13 5 -60 -17z"/>
<path d="M1600 578 l-35 -10 45 -23 c61 -30 107 -40 134 -26 11 6 39 17 61 25
55 20 26 20 -42 0 -32 -9 -68 -13 -88 -10 -36 7 -57 27 -37 34 13 4 17 23 5
21 -5 0 -24 -5 -43 -11z"/>
<path d="M1858 563 c7 -3 16 -2 19 1 4 3 -2 6 -13 5 -11 0 -14 -3 -6 -6z"/>
<path d="M2725 545 c-38 -12 -137 -44 -220 -71 -82 -26 -154 -51 -159 -56 -6
-4 10 -8 35 -8 42 0 74 10 194 58 28 11 90 35 138 53 48 17 90 36 93 41 7 11
-1 10 -81 -17z"/>
</g>
</svg>
